<svg xmlns="http://www.w3.org/2000/svg" viewBox="0 0 100 100"><title>Voltwijk</title><rect width="100" height="100" rx="22" fill="#0F6E6B"/><clipPath id="fL"><rect x="-17" y="-100" width="992" height="1640"/></clipPath><clipPath id="fR"><rect x="976" y="-100" width="992" height="1640"/></clipPath><g transform="translate(16.19 71.90) scale(0.03465 -0.03465)"><path clip-path="url(#fL)" fill="#fff" d="M444 0 23 1440H276L563 400L849 1438L1102 1440L1389 400L1675 1440H1928L1508 0H1270L975 1024L682 0Z"/><path clip-path="url(#fR)" fill="#6FD6C8" d="M444 0 23 1440H276L563 400L849 1438L1102 1440L1389 400L1675 1440H1928L1508 0H1270L975 1024L682 0Z"/><circle cx="976" cy="1440" r="176" fill="#FF6B5B"/></g></svg>